<svg width="138" height="202" viewBox="0 0 138 202" fill="none" xmlns="http://www.w3.org/2000/svg">
<circle cx="56" cy="5" r="5" fill="#E8E6F1"/>
<circle cx="56" cy="36" r="5" fill="#E8E6F1"/>
<circle cx="103" cy="5" r="5" fill="#E8E6F1"/>
<circle cx="82" cy="5" r="5" fill="#E8E6F1"/>
<circle cx="84" cy="36" r="5" fill="#E8E6F1"/>
<circle cx="108" cy="36" r="5" fill="#E8E6F1"/>
<circle cx="31" cy="5" r="5" fill="#E8E6F1"/>
<circle cx="31" cy="101" r="5" fill="#E8E6F1"/>
<circle cx="107" cy="69" r="5" fill="#E8E6F1"/>
<circle cx="56" cy="101" r="5" fill="#E8E6F1"/>
<circle cx="82" cy="69" r="5" fill="#E8E6F1"/>
<circle cx="57" cy="69" r="5" fill="#E8E6F1"/>
<circle cx="31" cy="69" r="5" fill="#E8E6F1"/>
<circle cx="82" cy="101" r="5" fill="#E8E6F1"/>
<circle cx="107" cy="101" r="5" fill="#E8E6F1"/>
<circle cx="31" cy="5" r="5" fill="#E8E6F1"/>
<circle cx="31" cy="36" r="5" fill="#E8E6F1"/>
<circle cx="5" cy="37" r="5" fill="#E8E6F1"/>
<circle cx="6" cy="5" r="5" fill="#E8E6F1"/>
<circle cx="5" cy="101" r="5" fill="#E8E6F1"/>
<circle cx="6" cy="69" r="5" fill="#E8E6F1"/>
<circle cx="81" cy="101" r="5" fill="#E8E6F1"/>
<circle cx="81" cy="132" r="5" fill="#E8E6F1"/>
<circle cx="128" cy="101" r="5" fill="#E8E6F1"/>
<circle cx="107" cy="101" r="5" fill="#E8E6F1"/>
<circle cx="109" cy="132" r="5" fill="#E8E6F1"/>
<circle cx="133" cy="132" r="5" fill="#E8E6F1"/>
<circle cx="56" cy="101" r="5" fill="#E8E6F1"/>
<circle cx="56" cy="197" r="5" fill="#E8E6F1"/>
<circle cx="132" cy="165" r="5" fill="#E8E6F1"/>
<circle cx="81" cy="197" r="5" fill="#E8E6F1"/>
<circle cx="107" cy="165" r="5" fill="#E8E6F1"/>
<circle cx="82" cy="165" r="5" fill="#E8E6F1"/>
<circle cx="56" cy="165" r="5" fill="#E8E6F1"/>
<circle cx="107" cy="197" r="5" fill="#E8E6F1"/>
<circle cx="132" cy="197" r="5" fill="#E8E6F1"/>
<circle cx="56" cy="101" r="5" fill="#E8E6F1"/>
<circle cx="56" cy="132" r="5" fill="#E8E6F1"/>
<circle cx="30" cy="133" r="5" fill="#E8E6F1"/>
<circle cx="31" cy="101" r="5" fill="#E8E6F1"/>
<circle cx="30" cy="197" r="5" fill="#E8E6F1"/>
<circle cx="31" cy="165" r="5" fill="#E8E6F1"/>
</svg>
