<svg width="112" height="112" viewBox="0 0 112 112" fill="none" xmlns="http://www.w3.org/2000/svg">
<path d="M60 107C60 109.761 57.7614 112 55 112C52.2386 112 50 109.761 50 107C50 104.239 52.2386 102 55 102C57.7614 102 60 104.239 60 107Z" fill="#E8E6F1"/>
<path d="M36 107C36 109.761 33.7614 112 31 112C28.2386 112 26 109.761 26 107C26 104.239 28.2386 102 31 102C33.7614 102 36 104.239 36 107Z" fill="#E8E6F1"/>
<path d="M10 107C10 109.761 7.76142 112 5 112C2.23858 112 0 109.761 0 107C0 104.239 2.23858 102 5 102C7.76142 102 10 104.239 10 107Z" fill="#E8E6F1"/>
<path d="M11 73C11 75.7614 8.76142 78 6 78C3.23858 78 1 75.7614 1 73C1 70.2386 3.23858 68 6 68C8.76142 68 11 70.2386 11 73Z" fill="#E8E6F1"/>
<path d="M36 73C36 75.7614 33.7614 78 31 78C28.2386 78 26 75.7614 26 73C26 70.2386 28.2386 68 31 68C33.7614 68 36 70.2386 36 73Z" fill="#E8E6F1"/>
<path d="M61 73C61 75.7614 58.7614 78 56 78C53.2386 78 51 75.7614 51 73C51 70.2386 53.2386 68 56 68C58.7614 68 61 70.2386 61 73Z" fill="#E8E6F1"/>
<path d="M86 73C86 75.7614 83.7614 78 81 78C78.2386 78 76 75.7614 76 73C76 70.2386 78.2386 68 81 68C83.7614 68 86 70.2386 86 73Z" fill="#E8E6F1"/>
<path d="M111 73C111 75.7614 108.761 78 106 78C103.239 78 101 75.7614 101 73C101 70.2386 103.239 68 106 68C108.761 68 111 70.2386 111 73Z" fill="#E8E6F1"/>
<path d="M86 107C86 109.761 83.7614 112 81 112C78.2386 112 76 109.761 76 107C76 104.239 78.2386 102 81 102C83.7614 102 86 104.239 86 107Z" fill="#E8E6F1"/>
<path d="M111 107C111 109.761 108.761 112 106 112C103.239 112 101 109.761 101 107C101 104.239 103.239 102 106 102C108.761 102 111 104.239 111 107Z" fill="#E8E6F1"/>
<path d="M112 39C112 41.7614 109.761 44 107 44C104.239 44 102 41.7614 102 39C102 36.2386 104.239 34 107 34C109.761 34 112 36.2386 112 39Z" fill="#E8E6F1"/>
<path d="M88 39C88 41.7614 85.7614 44 83 44C80.2386 44 78 41.7614 78 39C78 36.2386 80.2386 34 83 34C85.7614 34 88 36.2386 88 39Z" fill="#E8E6F1"/>
<path d="M60 39C60 41.7614 57.7614 44 55 44C52.2386 44 50 41.7614 50 39C50 36.2386 52.2386 34 55 34C57.7614 34 60 36.2386 60 39Z" fill="#E8E6F1"/>
<path d="M36 39C36 41.7614 33.7614 44 31 44C28.2386 44 26 41.7614 26 39C26 36.2386 28.2386 34 31 34C33.7614 34 36 36.2386 36 39Z" fill="#E8E6F1"/>
<path d="M10 39C10 41.7614 7.76142 44 5 44C2.23858 44 0 41.7614 0 39C0 36.2386 2.23858 34 5 34C7.76142 34 10 36.2386 10 39Z" fill="#E8E6F1"/>
<path d="M11 5C11 7.76142 8.76142 10 6 10C3.23858 10 1 7.76142 1 5C1 2.23858 3.23858 0 6 0C8.76142 0 11 2.23858 11 5Z" fill="#E8E6F1"/>
<path d="M36 5C36 7.76142 33.7614 10 31 10C28.2386 10 26 7.76142 26 5C26 2.23858 28.2386 0 31 0C33.7614 0 36 2.23858 36 5Z" fill="#E8E6F1"/>
<path d="M60 5C60 7.76142 57.7614 10 55 10C52.2386 10 50 7.76142 50 5C50 2.23858 52.2386 0 55 0C57.7614 0 60 2.23858 60 5Z" fill="#E8E6F1"/>
<path d="M86 5C86 7.76142 83.7614 10 81 10C78.2386 10 76 7.76142 76 5C76 2.23858 78.2386 0 81 0C83.7614 0 86 2.23858 86 5Z" fill="#E8E6F1"/>
<path d="M107 5C107 7.76142 104.761 10 102 10C99.2386 10 97 7.76142 97 5C97 2.23858 99.2386 0 102 0C104.761 0 107 2.23858 107 5Z" fill="#E8E6F1"/>
</svg>
