<svg width="215" height="139" viewBox="0 0 215 139" fill="none" xmlns="http://www.w3.org/2000/svg">
<circle cx="56" cy="38" r="5" fill="#E8E6F1"/>
<circle cx="56" cy="69" r="5" fill="#E8E6F1"/>
<circle cx="103" cy="38" r="5" fill="#E8E6F1"/>
<circle cx="82" cy="38" r="5" fill="#E8E6F1"/>
<circle cx="84" cy="69" r="5" fill="#E8E6F1"/>
<circle cx="108" cy="69" r="5" fill="#E8E6F1"/>
<circle cx="31" cy="38" r="5" fill="#E8E6F1"/>
<circle cx="31" cy="134" r="5" fill="#E8E6F1"/>
<circle cx="107" cy="102" r="5" fill="#E8E6F1"/>
<circle cx="56" cy="134" r="5" fill="#E8E6F1"/>
<circle cx="82" cy="102" r="5" fill="#E8E6F1"/>
<circle cx="57" cy="102" r="5" fill="#E8E6F1"/>
<circle cx="31" cy="102" r="5" fill="#E8E6F1"/>
<circle cx="82" cy="134" r="5" fill="#E8E6F1"/>
<circle cx="107" cy="134" r="5" fill="#E8E6F1"/>
<circle cx="31" cy="38" r="5" fill="#E8E6F1"/>
<circle cx="31" cy="69" r="5" fill="#E8E6F1"/>
<circle cx="5" cy="70" r="5" fill="#E8E6F1"/>
<circle cx="6" cy="38" r="5" fill="#E8E6F1"/>
<circle cx="5" cy="134" r="5" fill="#E8E6F1"/>
<circle cx="6" cy="102" r="5" fill="#E8E6F1"/>
<circle cx="158" cy="5" r="5" fill="#E8E6F1"/>
<circle cx="158" cy="36" r="5" fill="#E8E6F1"/>
<circle cx="205" cy="5" r="5" fill="#E8E6F1"/>
<circle cx="184" cy="5" r="5" fill="#E8E6F1"/>
<circle cx="186" cy="36" r="5" fill="#E8E6F1"/>
<circle cx="210" cy="36" r="5" fill="#E8E6F1"/>
<circle cx="133" cy="5" r="5" fill="#E8E6F1"/>
<circle cx="133" cy="101" r="5" fill="#E8E6F1"/>
<circle cx="209" cy="69" r="5" fill="#E8E6F1"/>
<circle cx="158" cy="101" r="5" fill="#E8E6F1"/>
<circle cx="184" cy="69" r="5" fill="#E8E6F1"/>
<circle cx="159" cy="69" r="5" fill="#E8E6F1"/>
<circle cx="133" cy="69" r="5" fill="#E8E6F1"/>
<circle cx="184" cy="101" r="5" fill="#E8E6F1"/>
<circle cx="209" cy="101" r="5" fill="#E8E6F1"/>
<circle cx="133" cy="5" r="5" fill="#E8E6F1"/>
<circle cx="133" cy="36" r="5" fill="#E8E6F1"/>
<circle cx="107" cy="37" r="5" fill="#E8E6F1"/>
<circle cx="108" cy="5" r="5" fill="#E8E6F1"/>
<circle cx="107" cy="101" r="5" fill="#E8E6F1"/>
<circle cx="108" cy="69" r="5" fill="#E8E6F1"/>
</svg>
