<svg width="175" height="182" viewBox="0 0 175 182" fill="none" xmlns="http://www.w3.org/2000/svg">
<circle cx="56" cy="5" r="5" fill="#E8E6F1"/>
<circle cx="56" cy="36" r="5" fill="#E8E6F1"/>
<circle cx="103" cy="5" r="5" fill="#E8E6F1"/>
<circle cx="82" cy="5" r="5" fill="#E8E6F1"/>
<circle cx="84" cy="36" r="5" fill="#E8E6F1"/>
<circle cx="108" cy="36" r="5" fill="#E8E6F1"/>
<circle cx="31" cy="5" r="5" fill="#E8E6F1"/>
<circle cx="31" cy="101" r="5" fill="#E8E6F1"/>
<circle cx="107" cy="69" r="5" fill="#E8E6F1"/>
<circle cx="56" cy="101" r="5" fill="#E8E6F1"/>
<circle cx="82" cy="69" r="5" fill="#E8E6F1"/>
<circle cx="57" cy="69" r="5" fill="#E8E6F1"/>
<circle cx="31" cy="69" r="5" fill="#E8E6F1"/>
<circle cx="82" cy="101" r="5" fill="#E8E6F1"/>
<circle cx="107" cy="101" r="5" fill="#E8E6F1"/>
<circle cx="31" cy="5" r="5" fill="#E8E6F1"/>
<circle cx="31" cy="36" r="5" fill="#E8E6F1"/>
<circle cx="5" cy="37" r="5" fill="#E8E6F1"/>
<circle cx="6" cy="5" r="5" fill="#E8E6F1"/>
<circle cx="5" cy="101" r="5" fill="#E8E6F1"/>
<circle cx="6" cy="69" r="5" fill="#E8E6F1"/>
<circle cx="118" cy="81" r="5" fill="#E8E6F1"/>
<circle cx="118" cy="112" r="5" fill="#E8E6F1"/>
<circle cx="165" cy="81" r="5" fill="#E8E6F1"/>
<circle cx="144" cy="81" r="5" fill="#E8E6F1"/>
<circle cx="146" cy="112" r="5" fill="#E8E6F1"/>
<circle cx="170" cy="112" r="5" fill="#E8E6F1"/>
<circle cx="93" cy="81" r="5" fill="#E8E6F1"/>
<circle cx="93" cy="177" r="5" fill="#E8E6F1"/>
<circle cx="169" cy="145" r="5" fill="#E8E6F1"/>
<circle cx="118" cy="177" r="5" fill="#E8E6F1"/>
<circle cx="144" cy="145" r="5" fill="#E8E6F1"/>
<circle cx="119" cy="145" r="5" fill="#E8E6F1"/>
<circle cx="93" cy="145" r="5" fill="#E8E6F1"/>
<circle cx="144" cy="177" r="5" fill="#E8E6F1"/>
<circle cx="169" cy="177" r="5" fill="#E8E6F1"/>
<circle cx="93" cy="81" r="5" fill="#E8E6F1"/>
<circle cx="93" cy="112" r="5" fill="#E8E6F1"/>
<circle cx="67" cy="113" r="5" fill="#E8E6F1"/>
<circle cx="68" cy="81" r="5" fill="#E8E6F1"/>
<circle cx="67" cy="177" r="5" fill="#E8E6F1"/>
<circle cx="68" cy="145" r="5" fill="#E8E6F1"/>
</svg>
