<svg width="1280" height="1250" viewBox="0 0 1280 1250" fill="none" xmlns="http://www.w3.org/2000/svg">
<path d="M1292 -216H1290.49L1238.04 -156.642L1185.59 -216H1182.57L1130.12 -156.642L1077.68 -216H1074.66L1022.21 -156.642L969.761 -216H966.739L914.292 -156.642L861.844 -216H858.822L806.375 -156.642L753.927 -216H750.906L698.458 -156.642L646.011 -216H642.989L590.542 -156.642L538.094 -216H535.073L482.625 -156.642L430.177 -216H427.156L374.708 -156.642L322.261 -216H319.239L266.792 -156.642L214.344 -216H211.323L158.875 -156.642L106.427 -216H103.406L50.9583 -156.642L-1.48917 -216H-3V-214.29L49.4475 -154.932L-3 -95.5746V29.9804L49.4475 89.3382L-3 148.696V274.251L49.4475 333.609L-3 392.966V518.522L49.4475 577.879L-3 637.237V762.792L49.4475 822.15L-3 881.507V1007.06L49.4475 1066.42L-3 1125.78V1249.62H-1.48917L-1.92083 1249.13V1130.42L49.4475 1188.56L103.406 1249.62H106.427L160.386 1188.56L211.754 1130.42V1249.13L211.323 1249.62H214.344L213.912 1249.13V1130.42L265.281 1188.56L319.239 1249.62H322.261L376.219 1188.56L427.587 1130.42V1249.13L427.156 1249.62H430.177L429.746 1249.13V1130.42L481.114 1188.56L535.073 1249.62H538.094L592.052 1188.56L643.421 1130.42V1249.13L642.989 1249.62H646.011L645.579 1249.13V1130.42L696.947 1188.56L750.906 1249.62H753.927L807.886 1188.56L859.254 1130.42V1249.13L858.822 1249.62H861.844L861.412 1249.13V1130.42L912.781 1188.56L966.739 1249.62H969.761L1023.72 1188.56L1075.09 1130.42V1249.13L1074.66 1249.62H1077.68L1077.25 1249.13V1130.42L1128.61 1188.56L1182.57 1249.62H1185.59L1239.55 1188.56L1290.92 1130.42V1249.13L1290.49 1249.62H1292V1125.78L1239.55 1066.42L1292 1007.06V881.507L1239.55 822.15L1292 762.792V637.237L1239.55 577.879L1292 518.522V392.966L1239.55 333.609L1292 274.251V148.696L1239.55 89.3382L1292 29.9804V-95.5746L1239.55 -154.932L1292 -214.29V-216ZM1130.12 820.44L1077.25 760.594V641.878L1128.61 700.014L1182.57 761.082L1130.12 820.44ZM1183 764.013V882.729L1130.12 942.575L1077.68 883.217L1131.64 822.15L1183 764.013ZM106.427 761.082L160.386 700.014L211.754 641.878V760.594L158.875 820.44L106.427 761.082ZM211.323 883.217L158.875 942.575L105.996 882.729V764.013L157.364 822.15L211.323 883.217ZM969.761 516.812L1023.72 455.744L1075.09 397.608V516.323L1022.21 576.169L969.761 516.812ZM1074.66 638.947L1022.21 698.305L969.329 638.458V519.743L1020.7 577.879L1074.66 638.947ZM1075.09 272.052L1022.21 331.899L969.761 272.541L1023.72 211.473L1075.09 153.337V272.052ZM1076.17 274.251L1128.61 333.609L1076.17 392.966L1023.72 333.609L1076.17 274.251ZM1020.7 333.609L1074.66 394.676L1022.21 454.034L969.329 394.188V275.472L1020.7 333.609ZM1020.7 455.744L968.25 515.102L915.802 455.744L968.25 396.386L1020.7 455.744ZM915.802 577.879L967.171 519.743V638.458L914.292 698.305L861.844 638.947L915.802 577.879ZM914.292 576.169L861.412 516.323V397.608L912.781 455.744L966.739 516.812L914.292 576.169ZM967.171 394.188L914.292 454.034L861.844 394.676L915.802 333.609L967.171 275.472V394.188ZM914.292 331.899L861.412 272.052V153.337L912.781 211.473L966.739 272.541L914.292 331.899ZM912.781 333.609L860.333 392.966L807.886 333.609L860.333 274.251L912.781 333.609ZM753.927 516.812L807.886 455.744L859.254 397.608V516.323L806.375 576.169L753.927 516.812ZM858.822 638.947L806.375 698.305L753.496 638.458V519.743L804.864 577.879L858.822 638.947ZM859.254 272.052L806.375 331.899L753.927 272.541L807.886 211.473L859.254 153.337V272.052ZM804.864 333.609L858.822 394.676L806.375 454.034L753.496 394.188V275.472L804.864 333.609ZM804.864 455.744L752.417 515.102L699.969 455.744L752.417 396.386L804.864 455.744ZM699.969 577.879L751.337 519.743V638.458L698.458 698.305L646.011 638.947L699.969 577.879ZM698.458 576.169L645.579 516.323V397.608L696.947 455.744L750.906 516.812L698.458 576.169ZM751.337 394.188L698.458 454.034L646.011 394.676L699.969 333.609L751.337 275.472V394.188ZM698.458 331.899L645.579 272.052V153.337L696.947 211.473L750.906 272.541L698.458 331.899ZM696.947 333.609L644.5 392.966L592.052 333.609L644.5 274.251L696.947 333.609ZM538.094 516.812L592.052 455.744L643.421 397.608V516.323L590.542 576.169L538.094 516.812ZM642.989 638.947L590.542 698.305L537.662 638.458V519.743L589.031 577.879L642.989 638.947ZM643.421 272.052L590.542 331.899L538.094 272.541L592.052 211.473L643.421 153.337V272.052ZM589.031 333.609L642.989 394.676L590.542 454.034L537.662 394.188V275.472L589.031 333.609ZM589.031 455.744L536.583 515.102L484.136 455.744L536.583 396.386L589.031 455.744ZM484.136 577.879L535.504 519.743V638.458L482.625 698.305L430.177 638.947L484.136 577.879ZM482.625 576.169L429.746 516.323V397.608L481.114 455.744L535.073 516.812L482.625 576.169ZM535.504 394.188L482.625 454.034L430.177 394.676L484.136 333.609L535.504 275.472V394.188ZM482.625 331.899L429.746 272.052V153.337L481.114 211.473L535.073 272.541L482.625 331.899ZM481.114 333.609L428.667 392.966L376.219 333.609L428.667 274.251L481.114 333.609ZM322.261 516.812L376.219 455.744L427.587 397.608V516.323L374.708 576.169L322.261 516.812ZM427.156 638.947L374.708 698.305L321.829 638.458V519.743L373.198 577.879L427.156 638.947ZM427.587 272.052L374.708 331.899L322.261 272.541L376.219 211.473L427.587 153.337V272.052ZM373.198 333.609L427.156 394.676L374.708 454.034L321.829 394.188V275.472L373.198 333.609ZM373.198 455.744L320.75 515.102L268.302 455.744L320.75 396.386L373.198 455.744ZM268.302 577.879L319.671 519.743V638.458L266.792 698.305L214.344 638.947L268.302 577.879ZM266.792 576.169L213.912 516.323V397.608L265.281 455.744L319.239 516.812L266.792 576.169ZM319.671 394.188L266.792 454.034L214.344 394.676L268.302 333.609L319.671 275.472V394.188ZM266.792 331.899L213.912 272.052V153.337L265.281 211.473L319.239 272.541L266.792 331.899ZM265.281 333.609L212.833 392.966L160.386 333.609L212.833 274.251L265.281 333.609ZM211.754 272.052L158.875 331.899L106.427 272.541L160.386 211.473L211.754 153.337V272.052ZM157.364 333.609L211.323 394.676L158.875 454.034L105.996 394.188V275.472L157.364 333.609ZM160.386 455.744L211.754 397.608V516.323L158.875 576.169L106.427 516.812L160.386 455.744ZM157.364 577.879L211.323 638.947L158.875 698.305L105.996 638.458V519.743L157.364 577.879ZM160.386 577.879L212.833 518.522L265.281 577.879L212.833 637.237L160.386 577.879ZM213.912 641.878L265.281 700.014L319.239 761.082L266.792 820.44L213.912 760.594V641.878ZM268.302 822.15L319.671 764.013V882.729L266.792 942.575L214.344 883.217L268.302 822.15ZM268.302 700.014L320.75 640.657L373.198 700.014L320.75 759.372L268.302 700.014ZM321.829 764.013L373.198 822.15L427.156 883.217L374.708 942.575L321.829 882.729V764.013ZM322.261 761.082L376.219 700.014L427.587 641.878V760.594L374.708 820.44L322.261 761.082ZM376.219 577.879L428.667 518.522L481.114 577.879L428.667 637.237L376.219 577.879ZM429.746 641.878L481.114 700.014L535.073 761.082L482.625 820.44L429.746 760.594V641.878ZM484.136 822.15L535.504 764.013V882.729L482.625 942.575L430.177 883.217L484.136 822.15ZM484.136 700.014L536.583 640.657L589.031 700.014L536.583 759.372L484.136 700.014ZM537.662 764.013L589.031 822.15L642.989 883.217L590.542 942.575L537.662 882.729V764.013ZM538.094 761.082L592.052 700.014L643.421 641.878V760.594L590.542 820.44L538.094 761.082ZM592.052 577.879L644.5 518.522L696.947 577.879L644.5 637.237L592.052 577.879ZM645.579 641.878L696.947 700.014L750.906 761.082L698.458 820.44L645.579 760.594V641.878ZM699.969 822.15L751.337 764.013V882.729L698.458 942.575L646.011 883.217L699.969 822.15ZM699.969 700.014L752.417 640.657L804.864 700.014L752.417 759.372L699.969 700.014ZM753.496 764.013L804.864 822.15L858.822 883.217L806.375 942.575L753.496 882.729V764.013ZM753.927 761.082L807.886 700.014L859.254 641.878V760.594L806.375 820.44L753.927 761.082ZM807.886 577.879L860.333 518.522L912.781 577.879L860.333 637.237L807.886 577.879ZM861.412 641.878L912.781 700.014L966.739 761.082L914.292 820.44L861.412 760.594V641.878ZM915.802 822.15L967.171 764.013V882.729L914.292 942.575L861.844 883.217L915.802 822.15ZM915.802 700.014L968.25 640.657L1020.7 700.014L968.25 759.372L915.802 700.014ZM969.329 764.013L1020.7 822.15L1074.66 883.217L1022.21 942.575L969.329 882.729V764.013ZM969.761 761.082L1023.72 700.014L1075.09 641.878V760.594L1022.21 820.44L969.761 761.082ZM1023.72 577.879L1076.17 518.522L1128.61 577.879L1076.17 637.237L1023.72 577.879ZM1077.68 638.947L1131.64 577.879L1183 519.743V638.458L1130.12 698.305L1077.68 638.947ZM1130.12 576.169L1077.25 516.323V397.608L1128.61 455.744L1182.57 516.812L1130.12 576.169ZM1077.68 394.676L1131.64 333.609L1183 275.472V394.188L1130.12 454.034L1077.68 394.676ZM1130.12 331.899L1077.25 272.052V153.337L1128.61 211.473L1182.57 272.541L1130.12 331.899ZM1077.68 150.406L1131.64 89.3382L1183 31.2018V149.917L1130.12 209.764L1077.68 150.406ZM1130.12 87.6283L1077.25 27.782V-90.9335L1128.61 -32.7971L1182.57 28.2705L1130.12 87.6283ZM1128.61 89.3382L1076.17 148.696L1023.72 89.3382L1076.17 29.9804L1128.61 89.3382ZM1075.09 27.782L1022.21 87.6283L969.761 28.2705L1023.72 -32.7971L1075.09 -90.9335V27.782ZM1020.7 89.3382L1074.66 150.406L1022.21 209.764L969.329 149.917V31.2018L1020.7 89.3382ZM1020.7 211.473L968.25 270.831L915.802 211.473L968.25 152.116L1020.7 211.473ZM967.171 149.917L914.292 209.764L861.844 150.406L915.802 89.3382L967.171 31.2018V149.917ZM914.292 87.6283L861.412 27.782V-90.9335L912.781 -32.7971L966.739 28.2705L914.292 87.6283ZM912.781 89.3382L860.333 148.696L807.886 89.3382L860.333 29.9804L912.781 89.3382ZM859.254 27.782L806.375 87.6283L753.927 28.2705L807.886 -32.7971L859.254 -90.9335V27.782ZM804.864 89.3382L858.822 150.406L806.375 209.764L753.496 149.917V31.2018L804.864 89.3382ZM804.864 211.473L752.417 270.831L699.969 211.473L752.417 152.116L804.864 211.473ZM751.337 149.917L698.458 209.764L646.011 150.406L699.969 89.3382L751.337 31.2018V149.917ZM698.458 87.6283L645.579 27.782V-90.9335L696.947 -32.7971L750.906 28.2705L698.458 87.6283ZM696.947 89.3382L644.5 148.696L592.052 89.3382L644.5 29.9804L696.947 89.3382ZM643.421 27.782L590.542 87.6283L538.094 28.2705L592.052 -32.7971L643.421 -90.9335V27.782ZM589.031 89.3382L642.989 150.406L590.542 209.764L537.662 149.917V31.2018L589.031 89.3382ZM589.031 211.473L536.583 270.831L484.136 211.473L536.583 152.116L589.031 211.473ZM535.504 149.917L482.625 209.764L430.177 150.406L484.136 89.3382L535.504 31.2018V149.917ZM482.625 87.6283L429.746 27.782V-90.9335L481.114 -32.7971L535.073 28.2705L482.625 87.6283ZM481.114 89.3382L428.667 148.696L376.219 89.3382L428.667 29.9804L481.114 89.3382ZM427.587 27.782L374.708 87.6283L322.261 28.2705L376.219 -32.7971L427.587 -90.9335V27.782ZM373.198 89.3382L427.156 150.406L374.708 209.764L321.829 149.917V31.2018L373.198 89.3382ZM373.198 211.473L320.75 270.831L268.302 211.473L320.75 152.116L373.198 211.473ZM319.671 149.917L266.792 209.764L214.344 150.406L268.302 89.3382L319.671 31.2018V149.917ZM266.792 87.6283L213.912 27.782V-90.9335L265.281 -32.7971L319.239 28.2705L266.792 87.6283ZM265.281 89.3382L212.833 148.696L160.386 89.3382L212.833 29.9804L265.281 89.3382ZM211.754 27.782L158.875 87.6283L106.427 28.2705L160.386 -32.7971L211.754 -90.9335V27.782ZM157.364 89.3382L211.323 150.406L158.875 209.764L105.996 149.917V31.2018L157.364 89.3382ZM157.364 211.473L104.917 270.831L52.4692 211.473L104.917 152.116L157.364 211.473ZM157.364 455.744L104.917 515.102L52.4692 455.744L104.917 396.386L157.364 455.744ZM157.364 700.014L104.917 759.372L52.4692 700.014L104.917 640.657L157.364 700.014ZM157.364 944.285L104.917 1003.64L52.4692 944.285L104.917 884.927L157.364 944.285ZM160.386 944.285L211.754 886.149V1004.86L158.875 1064.71L106.427 1005.35L160.386 944.285ZM160.386 822.15L212.833 762.792L265.281 822.15L212.833 881.507L160.386 822.15ZM213.912 886.149L265.281 944.285L319.239 1005.35L266.792 1064.71L213.912 1004.86V886.149ZM268.302 944.285L320.75 884.927L373.198 944.285L320.75 1003.64L268.302 944.285ZM376.219 944.285L427.587 886.149V1004.86L374.708 1064.71L322.261 1005.35L376.219 944.285ZM376.219 822.15L428.667 762.792L481.114 822.15L428.667 881.507L376.219 822.15ZM429.746 886.149L481.114 944.285L535.073 1005.35L482.625 1064.71L429.746 1004.86V886.149ZM484.136 944.285L536.583 884.927L589.031 944.285L536.583 1003.64L484.136 944.285ZM592.052 944.285L643.421 886.149V1004.86L590.542 1064.71L538.094 1005.35L592.052 944.285ZM592.052 822.15L644.5 762.792L696.947 822.15L644.5 881.507L592.052 822.15ZM645.579 886.149L696.947 944.285L750.906 1005.35L698.458 1064.71L645.579 1004.86V886.149ZM699.969 944.285L752.417 884.927L804.864 944.285L752.417 1003.64L699.969 944.285ZM807.886 944.285L859.254 886.149V1004.86L806.375 1064.71L753.927 1005.35L807.886 944.285ZM807.886 822.15L860.333 762.792L912.781 822.15L860.333 881.507L807.886 822.15ZM861.412 886.149L912.781 944.285L966.739 1005.35L914.292 1064.71L861.412 1004.86V886.149ZM915.802 944.285L968.25 884.927L1020.7 944.285L968.25 1003.64L915.802 944.285ZM1023.72 944.285L1075.09 886.149V1004.86L1022.21 1064.71L969.761 1005.35L1023.72 944.285ZM1023.72 822.15L1076.17 762.792L1128.61 822.15L1076.17 881.507L1023.72 822.15ZM1077.25 886.149L1128.61 944.285L1182.57 1005.35L1130.12 1064.71L1077.25 1004.86V886.149ZM1131.64 944.285L1184.08 884.927L1236.53 944.285L1184.08 1003.64L1131.64 944.285ZM1131.64 700.014L1184.08 640.657L1236.53 700.014L1184.08 759.372L1131.64 700.014ZM1131.64 455.744L1184.08 396.386L1236.53 455.744L1184.08 515.102L1131.64 455.744ZM1131.64 211.473L1184.08 152.116L1236.53 211.473L1184.08 270.831L1131.64 211.473ZM1131.64 -32.7971L1184.08 -92.1548L1236.53 -32.7971L1184.08 26.5607L1131.64 -32.7971ZM1131.64 -154.932L1183 -213.069V-94.3533L1130.12 -34.507L1077.68 -93.8647L1131.64 -154.932ZM1076.17 -214.29L1128.61 -154.932L1076.17 -95.5746L1023.72 -154.932L1076.17 -214.29ZM969.329 -213.069L1020.7 -154.932L1074.66 -93.8647L1022.21 -34.507L969.329 -94.3533V-213.069ZM1020.7 -32.7971L968.25 26.5607L915.802 -32.7971L968.25 -92.1548L1020.7 -32.7971ZM915.802 -154.932L967.171 -213.069V-94.3533L914.292 -34.507L861.844 -93.8647L915.802 -154.932ZM860.333 -214.29L912.781 -154.932L860.333 -95.5746L807.886 -154.932L860.333 -214.29ZM753.496 -213.069L804.864 -154.932L858.822 -93.8647L806.375 -34.507L753.496 -94.3533V-213.069ZM804.864 -32.7971L752.417 26.5607L699.969 -32.7971L752.417 -92.1548L804.864 -32.7971ZM699.969 -154.932L751.337 -213.069V-94.3533L698.458 -34.507L646.011 -93.8647L699.969 -154.932ZM644.5 -214.29L696.947 -154.932L644.5 -95.5746L592.052 -154.932L644.5 -214.29ZM537.662 -213.069L589.031 -154.932L642.989 -93.8647L590.542 -34.507L537.662 -94.3533V-213.069ZM589.031 -32.7971L536.583 26.5607L484.136 -32.7971L536.583 -92.1548L589.031 -32.7971ZM484.136 -154.932L535.504 -213.069V-94.3533L482.625 -34.507L430.177 -93.8647L484.136 -154.932ZM428.667 -214.29L481.114 -154.932L428.667 -95.5746L376.219 -154.932L428.667 -214.29ZM321.829 -213.069L373.198 -154.932L427.156 -93.8647L374.708 -34.507L321.829 -94.3533V-213.069ZM373.198 -32.7971L320.75 26.5607L268.302 -32.7971L320.75 -92.1548L373.198 -32.7971ZM268.302 -154.932L319.671 -213.069V-94.3533L266.792 -34.507L214.344 -93.8647L268.302 -154.932ZM212.833 -214.29L265.281 -154.932L212.833 -95.5746L160.386 -154.932L212.833 -214.29ZM105.996 -213.069L157.364 -154.932L211.323 -93.8647L158.875 -34.507L105.996 -94.3533V-213.069ZM157.364 -32.7971L104.917 26.5607L52.4692 -32.7971L104.917 -92.1548L157.364 -32.7971ZM52.4692 -154.932L103.838 -213.069V-94.3533L50.9583 -34.507L-1.48917 -93.8647L52.4692 -154.932ZM-1.92083 27.782V-90.9335L49.4475 -32.7971L103.406 28.2705L50.9583 87.6283L-1.92083 27.782ZM52.4692 89.3382L103.838 31.2018V149.917L50.9583 209.764L-1.48917 150.406L52.4692 89.3382ZM-1.92083 272.052V153.337L49.4475 211.473L103.406 272.541L50.9583 331.899L-1.92083 272.052ZM52.4692 333.609L103.838 275.472V394.188L50.9583 454.034L-1.48917 394.676L52.4692 333.609ZM-1.92083 516.323V397.608L49.4475 455.744L103.406 516.812L50.9583 576.169L-1.92083 516.323ZM52.4692 577.879L103.838 519.743V638.458L50.9583 698.305L-1.48917 638.947L52.4692 577.879ZM-1.92083 760.594V641.878L49.4475 700.014L103.406 761.082L50.9583 820.44L-1.92083 760.594ZM52.4692 822.15L103.838 764.013V882.729L50.9583 942.575L-1.48917 883.217L52.4692 822.15ZM-1.92083 1004.86V886.149L49.4475 944.285L103.406 1005.35L50.9583 1064.71L-1.92083 1004.86ZM-1.48917 1127.49L52.4692 1066.42L103.838 1008.28V1127L50.9583 1186.85L-1.48917 1127.49ZM104.917 1247.91L52.4692 1188.56L104.917 1129.2L157.364 1188.56L104.917 1247.91ZM158.875 1186.85L105.996 1127V1008.28L157.364 1066.42L211.323 1127.49L158.875 1186.85ZM212.833 1125.78L160.386 1066.42L212.833 1007.06L265.281 1066.42L212.833 1125.78ZM214.344 1127.49L268.302 1066.42L319.671 1008.28V1127L266.792 1186.85L214.344 1127.49ZM320.75 1247.91L268.302 1188.56L320.75 1129.2L373.198 1188.56L320.75 1247.91ZM374.708 1186.85L321.829 1127V1008.28L373.198 1066.42L427.156 1127.49L374.708 1186.85ZM428.667 1125.78L376.219 1066.42L428.667 1007.06L481.114 1066.42L428.667 1125.78ZM430.177 1127.49L484.136 1066.42L535.504 1008.28V1127L482.625 1186.85L430.177 1127.49ZM536.583 1247.91L484.136 1188.56L536.583 1129.2L589.031 1188.56L536.583 1247.91ZM590.542 1186.85L537.662 1127V1008.28L589.031 1066.42L642.989 1127.49L590.542 1186.85ZM644.5 1125.78L592.052 1066.42L644.5 1007.06L696.947 1066.42L644.5 1125.78ZM646.011 1127.49L699.969 1066.42L751.337 1008.28V1127L698.458 1186.85L646.011 1127.49ZM752.417 1247.91L699.969 1188.56L752.417 1129.2L804.864 1188.56L752.417 1247.91ZM806.375 1186.85L753.496 1127V1008.28L804.864 1066.42L858.822 1127.49L806.375 1186.85ZM860.333 1125.78L807.886 1066.42L860.333 1007.06L912.781 1066.42L860.333 1125.78ZM861.844 1127.49L915.802 1066.42L967.171 1008.28V1127L914.292 1186.85L861.844 1127.49ZM968.25 1247.91L915.802 1188.56L968.25 1129.2L1020.7 1188.56L968.25 1247.91ZM1022.21 1186.85L969.329 1127V1008.28L1020.7 1066.42L1074.66 1127.49L1022.21 1186.85ZM1076.17 1125.78L1023.72 1066.42L1076.17 1007.06L1128.61 1066.42L1076.17 1125.78ZM1077.68 1127.49L1131.64 1066.42L1183 1008.28V1127L1130.12 1186.85L1077.68 1127.49ZM1184.08 1247.91L1131.64 1188.56L1184.08 1129.2L1236.53 1188.56L1184.08 1247.91ZM1290.49 1127.49L1238.04 1186.85L1185.16 1127V1008.28L1236.53 1066.42L1290.49 1127.49ZM1290.92 1004.86L1238.04 1064.71L1185.59 1005.35L1239.55 944.285L1290.92 886.149V1004.86ZM1290.49 883.217L1238.04 942.575L1185.16 882.729V764.013L1236.53 822.15L1290.49 883.217ZM1290.92 760.594L1238.04 820.44L1185.59 761.082L1239.55 700.014L1290.92 641.878V760.594ZM1290.49 638.947L1238.04 698.305L1185.16 638.458V519.743L1236.53 577.879L1290.49 638.947ZM1290.92 516.323L1238.04 576.169L1185.59 516.812L1239.55 455.744L1290.92 397.608V516.323ZM1290.49 394.676L1238.04 454.034L1185.16 394.188V275.472L1236.53 333.609L1290.49 394.676ZM1290.92 272.052L1238.04 331.899L1185.59 272.541L1239.55 211.473L1290.92 153.337V272.052ZM1290.49 150.406L1238.04 209.764L1185.16 149.917V31.2018L1236.53 89.3382L1290.49 150.406ZM1290.92 27.782L1238.04 87.6283L1185.59 28.2705L1239.55 -32.7971L1290.92 -90.9335V27.782ZM1290.49 -93.8647L1238.04 -34.507L1185.16 -94.3533V-213.069L1236.53 -154.932L1290.49 -93.8647Z" fill="#642028"/>
</svg>
